<?xml version="1.0" encoding="UTF-8"?>
<svg xmlns="http://www.w3.org/2000/svg" xmlns:xlink="http://www.w3.org/1999/xlink" id="Layer_1" data-name="Layer 1" viewBox="0 0 961.48 206.52" width="250" height="50">
  <defs>
    <linearGradient id="New_Gradient_Swatch_3" data-name="New Gradient Swatch 3" x1="143.26" y1="58.64" x2="65.86" y2="136.03" gradientUnits="userSpaceOnUse">
      <stop offset="0" stop-color="#a6ce39"></stop>
      <stop offset=".11" stop-color="#9fcd43"></stop>
      <stop offset=".29" stop-color="#8ecc5e"></stop>
      <stop offset=".53" stop-color="#73ca8b"></stop>
      <stop offset=".82" stop-color="#4dc7c8"></stop>
      <stop offset="1" stop-color="#32c5f4"></stop>
    </linearGradient>
    <linearGradient id="New_Gradient_Swatch_2" data-name="New Gradient Swatch 2" x1="103.03" y1="107.66" x2="161.78" y2="166.42" gradientUnits="userSpaceOnUse">
      <stop offset="0" stop-color="#7088c4" stop-opacity="0"></stop>
      <stop offset=".11" stop-color="#7088c4" stop-opacity=".06"></stop>
      <stop offset=".3" stop-color="#7088c4" stop-opacity=".22"></stop>
      <stop offset=".57" stop-color="#7088c4" stop-opacity=".49"></stop>
      <stop offset=".88" stop-color="#7088c4" stop-opacity=".85"></stop>
      <stop offset="1" stop-color="#7088c4"></stop>
    </linearGradient>
  </defs>
  <g>
    <path d="m162.08,150.07h-10.53v-13.69h10.53c18.32,0,33.22-14.9,33.22-33.22s-14.9-33.22-33.22-33.22h-10.53v-13.69h10.53c13.88,0,26.36,6.06,34.96,15.67C183.76,30.21,144.73,0,98.63,0S13.27,30.39.11,72.28c8.61-9.82,21.22-16.03,35.27-16.03v13.69c-18.32,0-33.22,14.9-33.22,33.22s14.9,33.22,33.22,33.22c15.97,0,29.34-11.33,32.51-26.37h-24.81v-13.69h39.21v6.85c0,25.87-21.04,46.91-46.91,46.91-14.11,0-26.77-6.27-35.38-16.16,13.06,42.06,52.28,72.61,98.63,72.61s85.35-30.38,98.52-72.25c-8.6,9.68-21.13,15.8-35.07,15.8Zm-24.1-26.88c0,14.82-12.06,26.88-26.88,26.88v-13.69c7.27,0,13.19-5.92,13.19-13.19s-5.92-13.19-13.19-13.19h-13.54v-13.69h13.54c7.27,0,13.19-5.92,13.19-13.19s-5.92-13.19-13.19-13.19h-28.81v13.19h-13.69v-26.88h42.5c14.82,0,26.88,12.06,26.88,26.88,0,7.96-3.5,15.11-9.02,20.03,5.52,4.93,9.02,12.07,9.02,20.03Z" style="fill: url(#New_Gradient_Swatch_3);"></path>
    <path d="m162.08,150.07h-10.53v-13.69h10.53c18.32,0,33.22-14.9,33.22-33.22s-14.9-33.22-33.22-33.22h-10.53v-13.69h10.53c13.88,0,26.36,6.06,34.96,15.67C183.76,30.21,144.73,0,98.63,0S13.27,30.39.11,72.28c8.61-9.82,21.22-16.03,35.27-16.03v13.69c-18.32,0-33.22,14.9-33.22,33.22s14.9,33.22,33.22,33.22c15.97,0,29.34-11.33,32.51-26.37h-24.81v-13.69h39.21v6.85c0,25.87-21.04,46.91-46.91,46.91-14.11,0-26.77-6.27-35.38-16.16,13.06,42.06,52.28,72.61,98.63,72.61s85.35-30.38,98.52-72.25c-8.6,9.68-21.13,15.8-35.07,15.8Zm-24.1-26.88c0,14.82-12.06,26.88-26.88,26.88v-13.69c7.27,0,13.19-5.92,13.19-13.19s-5.92-13.19-13.19-13.19h-13.54v-13.69h13.54c7.27,0,13.19-5.92,13.19-13.19s-5.92-13.19-13.19-13.19h-28.81v13.19h-13.69v-26.88h42.5c14.82,0,26.88,12.06,26.88,26.88,0,7.96-3.5,15.11-9.02,20.03,5.52,4.93,9.02,12.07,9.02,20.03Z" style="fill: url(#New_Gradient_Swatch_2);"></path>
  </g>
  <g>
    <path d="m261.05,103.45c0-26.32,18.84-44.81,44.81-44.81,13.57,0,25.39,4.68,34.63,15.44l-14.16,13.34c-4.8-6.43-12.28-10.41-20.47-10.41-14.98,0-24.92,11-24.92,26.56s10.65,26.56,24.92,26.56c12.05,0,20.24-7.14,21.88-17.08h-25.15v-17.08h45.86v7.49c0,26.68-16.73,44.81-42.59,44.81s-44.81-18.49-44.81-44.81Z" style="fill: #0c436a;"></path>
    <path d="m380.48,84.5h7.96v16.61h-6.2c-3.74,0-5.38,1.64-5.38,5.38v40.01h-18.49v-39.55c0-15.56,8.31-22.46,22.11-22.46Z" style="fill: #0c436a;"></path>
    <path d="m393.35,115.62c0-19.07,14.74-32.64,33.11-32.64s33.11,13.57,33.11,32.64-14.74,32.64-33.11,32.64-33.11-13.57-33.11-32.64Zm33.11,15.44c8.31,0,14.62-6.2,14.62-15.44s-6.32-15.44-14.62-15.44-14.63,6.2-14.63,15.44,6.32,15.44,14.63,15.44Z" style="fill: #0c436a;"></path>
    <path d="m461.18,84.5h19.3l10.76,37.32,11.35-37.32h17.08l11.23,36.04,11-36.04h18.84l-20.83,62.01h-16.96l-12.17-36.39-12.05,36.39h-18.13l-19.42-62.01Z" style="fill: #0c436a;"></path>
    <path d="m575.61,60.98h21.29c16.15,0,26.44,7.84,26.44,21.29,0,9.24-4.8,16.03-12.99,19.3,10.18,2.81,16.03,10.41,16.03,21.18,0,14.62-10.53,23.75-27.14,23.75h-23.63V60.98Zm21.29,37.56c11.7,0,18.6-5.85,18.6-15.44s-6.9-14.98-18.6-14.98h-13.45v30.42h13.45Zm1.99,40.83c12.17,0,19.42-5.73,19.42-16.85s-7.14-16.85-20.36-16.85h-14.51v33.7h15.44Z" style="fill: #0c436a;"></path>
    <path d="m658.91,142.64l-25.62-57.91h8.42l21.18,49.02,19.3-49.02h8.07l-34.4,84.82h-8.07l11.11-26.91Z" style="fill: #0c436a;"></path>
    <path d="m700.88,60.4h26.79c27.14,0,45.63,16.73,45.63,43.05s-18.49,43.06-45.63,43.06h-26.79V60.4Zm26.79,67.62c15.56,0,25.51-8.77,25.51-24.57s-9.94-24.57-25.51-24.57h-7.37v49.14h7.37Z" style="fill: #0c436a;"></path>
    <path d="m781.46,115.5c0-19.07,14.16-32.17,30.89-32.17,6.9,0,13.69,2.34,17.9,6.79l.12-5.62h16.38v62.01h-16.38l-.12-5.62c-4.21,4.45-11,6.79-17.9,6.79-16.73,0-30.89-13.1-30.89-32.17Zm33.34,15.33c8.42,0,14.62-5.97,14.62-15.33s-6.2-15.33-14.62-15.33-14.86,5.97-14.86,15.33,6.32,15.33,14.86,15.33Z" style="fill: #0c436a;"></path>
    <path d="m864.04,101.11h-7.37v-16.61h7.37v-15.91l18.49-5.97v21.88h7.49v16.61h-7.49l-.12,45.4h-18.49l.12-45.4Z" style="fill: #0c436a;"></path>
    <path d="m896.2,115.5c0-19.07,14.16-32.17,30.89-32.17,6.9,0,13.69,2.34,17.9,6.79l.12-5.62h16.38v62.01h-16.38l-.12-5.62c-4.21,4.45-11,6.79-17.9,6.79-16.73,0-30.89-13.1-30.89-32.17Zm33.34,15.33c8.42,0,14.62-5.97,14.62-15.33s-6.2-15.33-14.62-15.33-14.86,5.97-14.86,15.33,6.32,15.33,14.86,15.33Z" style="fill: #0c436a;"></path>
  </g>
</svg>
