<svg width="180" height="20" viewBox="0 0 180 20" fill="none" xmlns="http://www.w3.org/2000/svg">
<g clip-path="url(#clip0_9253_3077)">
<path d="M123.455 15.5053C121.954 16.4287 120.153 16.7765 118.43 16.4057C116.835 16.0619 115.426 15.1715 114.598 13.8423C112.832 11.002 113.277 6.54776 115.549 4.52999C116.325 3.84041 117.223 3.39169 118.267 3.2048C120.321 2.83802 122.22 3.2008 123.976 4.30713C124.3 4.511 124.461 4.63892 124.727 4.90376C125.125 4.37309 126.267 2.7171 126.45 2.51822C126.317 2.25338 125.939 1.91059 125.568 1.66074C123.534 0.293579 121.269 0.00875334 118.891 0.107693C114.299 0.298576 110.716 3.34971 110.094 7.65008C109.308 13.0878 111.719 17.4091 116.373 18.9152C116.373 18.9152 118.777 19.5648 121.022 19.3259C122.662 19.1041 124.261 18.7573 125.719 17.9168C125.999 17.7559 126.243 17.588 126.419 17.3721C126.449 16.4357 126.449 9.67585 126.449 9.67585H120.294V12.0614H123.666V15.3754L123.454 15.5063L123.455 15.5053Z" fill="#FF5208"/>
<path d="M0 15.3978C0 15.3978 3.56782 16.9528 5.87841 14.0406C6.29215 13.5189 6.543 12.8853 6.59297 12.2207C6.68591 10.9875 7.24757 8.61092 10.2517 9.22054C10.2517 9.22054 9.12342 6.1794 5.14186 8.9697C5.14186 8.9697 5.90539 4.5404 11.9257 6.74806C12.2135 6.85399 12.5253 6.88597 12.8282 6.835C13.4548 6.72807 14.2073 6.25136 13.5447 4.42447C13.5447 4.42447 16.2091 5.55278 16.8367 3.17024C16.8367 3.17024 14.3602 1.79108 14.6111 0.0351562C14.6111 0.0351562 16.0842 1.19545 19.0004 0.599811C19.0004 0.599811 22.1355 -0.18371 23.7345 0.161079V18.376C23.7345 18.376 22.2294 19.2854 19.9728 19.0975C19.9728 19.0975 22.7001 18.1261 23.1708 15.5867C23.1708 15.5867 20.5065 17.0288 18.7186 14.96C18.7186 14.96 15.4266 20.4147 10.0029 17.0608C10.0029 17.0608 13.044 17.6564 14.8939 13.9257C14.8939 13.9257 11.5489 11.6331 7.26456 15.5527C6.41308 16.3322 5.34573 16.8449 4.19943 16.9808C2.9492 17.1287 1.40914 16.8709 0.00299817 15.3988L0 15.3978Z" fill="#D03F02"/>
<path d="M23.7325 0.16008V0.19306L10.8004 13.4699C9.74904 13.7568 8.54778 14.3734 7.26156 15.5507C6.41008 16.3302 5.34274 16.8429 4.19644 16.9788C2.9472 17.1267 1.40614 16.8689 0 15.3978C0.0569652 15.4228 3.58681 16.9288 5.87841 14.0406C6.29216 13.5189 6.543 12.8853 6.59297 12.2207C6.68492 10.9875 7.24757 8.61092 10.2517 9.22154C10.2517 9.22154 9.12343 6.1804 5.14086 8.9707C5.14086 8.9707 5.90439 4.5414 11.9247 6.74905C12.2125 6.85499 12.5243 6.88797 12.8272 6.836C13.4538 6.72907 14.2063 6.25236 13.5437 4.42447C13.5437 4.42447 16.2091 5.55278 16.8357 3.17024C16.8357 3.17024 14.3592 1.79108 14.6101 0.0351562C14.6101 0.0351562 16.0832 1.19545 18.9994 0.599811C18.9994 0.599811 22.1345 -0.18371 23.7335 0.161079L23.7325 0.16008Z" fill="#FF5208"/>
<path d="M150.972 0.132812H147.261V19.2201H150.972V0.132812Z" fill="#FF5208"/>
<path d="M48.5446 0V8.48282H38.206V0H35.6875V19.0873H38.206V10.5705H48.5446V19.0873H51.0631V0H48.5446Z" fill="#2E4573"/>
<path d="M33.7012 0H27.6688H25.4812H25.1504V19.0873H27.6688V2.1207H33.7012V0Z" fill="#2E4573"/>
<path d="M106.299 2.1207V0H97.0204H94.502V2.1207V8.3509V10.4716V16.9666V19.0873H97.0204H106.299V16.9666H97.0204V10.4716H104.576V8.3509H97.0204V2.1207H106.299Z" fill="#2E4573"/>
<path d="M67.1659 2.1207V0H57.8876H55.3691V2.1207V8.3509V10.4716V16.9666V19.0873H57.8876H67.1659V16.9666H57.8876V10.4716H65.443V8.3509H57.8876V2.1207H67.1659Z" fill="#2E4573"/>
<path d="M158.66 16.0381V0.132812H154.948V19.2191H155.081H158.66H166.347V16.0381H158.66Z" fill="#FF5208"/>
<path d="M172.311 16.0381V0.132812H168.601V19.2191H168.734H172.311H180V16.0381H172.311Z" fill="#FF5208"/>
<path d="M141.031 19.2191H144.742L139.422 11.238C140.199 10.9482 140.898 10.4945 141.472 9.91883C142.51 8.88247 143.151 7.44934 143.151 5.86531C143.151 2.69824 140.585 0.132812 137.419 0.132812H129.896V19.2191H133.608V11.5978H135.95L141.031 19.2191ZM133.608 2.84915H136.625C138.217 2.84915 139.507 4.13836 139.507 5.73039V6.26307C139.507 7.85509 138.217 9.14431 136.625 9.14431H133.608V2.85015V2.84915Z" fill="#FF5208"/>
<path d="M88.4894 0H87.8098L80.3304 13.1929L72.8319 0H72.0234H70.3135V19.0873H72.8319V4.2474L79.6907 16.436H80.94L87.8098 4.21942V19.0873H90.3282V0H88.4894Z" fill="#2E4573"/>
</g>
<defs>
<clipPath id="clip0_9253_3077">
<rect width="180" height="19.3792" fill="white"/>
</clipPath>
</defs>
</svg>
