<?xml version="1.0" encoding="utf-8"?>
<!-- Generator: Adobe Illustrator 26.1.0, SVG Export Plug-In . SVG Version: 6.00 Build 0)  -->
<svg version="1.1" id="Layer_1" xmlns="http://www.w3.org/2000/svg" xmlns:xlink="http://www.w3.org/1999/xlink" x="0px" y="0px"
	 viewBox="0 0 155.3 124.1" style="enable-background:new 0 0 155.3 124.1;" xml:space="preserve">
<style type="text/css">
	.st0{opacity:0.21;fill:#E4232A;}
	.st1{fill:#383856;}
	.st2{fill:#3BC197;}
	.st3{fill:#F76B9A;}
	.st4{fill:#43FFFF;}
	.st5{fill:#3C3C5B;}
	.st6{fill:#6F6F8E;}
	.st7{fill:#FF5F57;}
	.st8{fill:#FEBC2E;}
	.st9{fill:#29C940;}
	.st10{fill:#000201;}
	.st11{opacity:0.45;fill:#FFFFFF;enable-background:new    ;}
	.st12{fill:#FFFFFF;}
	.st13{font-family:'Arial-BoldMT';}
	.st14{font-size:11.4709px;}
</style>
<g id="Layer_1-2">
	<path class="st0" d="M27.1,37.6h106.8c5,0,9,4,9,9v62c0,5-4,9-9,9H27.1c-5,0-9-4-9-9v-62C18.1,41.6,22.1,37.6,27.1,37.6z"/>
	<path class="st1" d="M19.2,21.9h111.2c2.8,0,5.1,2.3,5.1,5.1v79c0,2.8-2.3,5.1-5.1,5.1H19.2c-2.8,0-5.1-2.3-5.1-5.1V27
		C14.1,24.2,16.4,21.9,19.2,21.9z"/>
	<path class="st2" d="M70.8,46.9H29.9c-0.7,0-1.2-0.5-1.2-1.2c0-0.7,0.5-1.2,1.2-1.2h40.9c0.7,0,1.2,0.5,1.2,1.2
		C72,46.3,71.5,46.9,70.8,46.9z"/>
	<path class="st3" d="M56.1,52.1H29.9c-0.7,0-1.2-0.5-1.2-1.2c0-0.7,0.5-1.2,1.2-1.2h26.2c0.7,0,1.2,0.5,1.2,1.2
		C57.3,51.5,56.8,52.1,56.1,52.1z"/>
	<path class="st4" d="M45.7,57.5H29.9c-0.7,0-1.2-0.5-1.2-1.2c0-0.7,0.5-1.2,1.2-1.2h15.8c0.7,0,1.2,0.5,1.2,1.2
		C46.9,57,46.4,57.5,45.7,57.5C45.7,57.5,45.7,57.5,45.7,57.5z"/>
	<path class="st4" d="M54.5,57.5h-4.1c-0.7,0-1.2-0.5-1.2-1.2c0-0.7,0.5-1.2,1.2-1.2h4.1c0.7,0,1.2,0.5,1.2,1.2
		C55.7,57,55.2,57.5,54.5,57.5z"/>
	<path class="st4" d="M65.9,57.5h-5.6c-0.7,0-1.2-0.5-1.2-1.2c0-0.7,0.5-1.2,1.2-1.2h5.6c0.7,0,1.2,0.5,1.2,1.2
		C67.1,57,66.6,57.5,65.9,57.5z"/>
	<path class="st2" d="M70.8,67.7H29.9c-0.7,0-1.2-0.5-1.2-1.2c0-0.7,0.5-1.2,1.2-1.2h40.9c0.7,0,1.2,0.5,1.2,1.2
		C72,67.1,71.5,67.7,70.8,67.7z"/>
	<path class="st3" d="M56.1,72.9H29.9c-0.7,0-1.2-0.5-1.2-1.2c0-0.7,0.5-1.2,1.2-1.2h26.2c0.7,0,1.2,0.5,1.2,1.2
		C57.3,72.4,56.8,72.9,56.1,72.9C56.1,72.9,56.1,72.9,56.1,72.9z"/>
	<path class="st4" d="M45.7,78.4H29.9c-0.7,0-1.2-0.5-1.2-1.2c0-0.7,0.5-1.2,1.2-1.2h15.8c0.7,0,1.2,0.5,1.2,1.2
		C46.9,77.8,46.4,78.4,45.7,78.4z"/>
	<path class="st4" d="M54.5,78.4h-4.1c-0.7,0-1.2-0.5-1.2-1.2c0-0.7,0.5-1.2,1.2-1.2h4.1c0.7,0,1.2,0.5,1.2,1.2
		C55.7,77.8,55.2,78.4,54.5,78.4z"/>
	<path class="st4" d="M65.9,78.4h-5.6c-0.7,0-1.2-0.5-1.2-1.2c0-0.7,0.5-1.2,1.2-1.2h5.6c0.7,0,1.2,0.5,1.2,1.2
		C67.1,77.8,66.6,78.4,65.9,78.4z"/>
	<path class="st5" d="M70.8,62.7H29.9c-0.7,0-1.3-0.6-1.3-1.3c0-0.7,0.6-1.3,1.3-1.3l0,0h40.9c0.7,0,1.3,0.6,1.3,1.3
		C72.1,62.1,71.5,62.7,70.8,62.7z"/>
	<path class="st5" d="M70.8,83.5H29.9c-0.7,0-1.3-0.6-1.3-1.3c0-0.7,0.6-1.3,1.3-1.3l0,0h40.9c0.7,0,1.3,0.6,1.3,1.3
		C72.1,82.9,71.5,83.5,70.8,83.5z"/>
	<path class="st2" d="M70.8,88.5H29.9c-0.7,0-1.2-0.5-1.2-1.2c0-0.7,0.5-1.2,1.2-1.2c0,0,0,0,0,0h40.9c0.7,0,1.2,0.5,1.2,1.2
		C72,88,71.5,88.5,70.8,88.5z"/>
	<path class="st3" d="M56.1,93.7H29.9c-0.7,0-1.2-0.5-1.2-1.2c0-0.7,0.5-1.2,1.2-1.2h26.2c0.7,0,1.2,0.5,1.2,1.2
		C57.3,93.2,56.8,93.7,56.1,93.7C56.1,93.7,56.1,93.7,56.1,93.7z"/>
	<path class="st4" d="M45.7,99.2H29.9c-0.7,0-1.2-0.5-1.2-1.2c0-0.7,0.5-1.2,1.2-1.2h15.8c0.7,0,1.2,0.5,1.2,1.2
		C46.9,98.6,46.4,99.2,45.7,99.2C45.7,99.2,45.7,99.2,45.7,99.2z"/>
	<path class="st4" d="M54.5,99.2h-4.1c-0.7,0-1.2-0.5-1.2-1.2c0-0.7,0.5-1.2,1.2-1.2c0,0,0,0,0,0h4.1c0.7,0,1.2,0.5,1.2,1.2
		C55.7,98.6,55.2,99.2,54.5,99.2C54.5,99.2,54.5,99.2,54.5,99.2z"/>
	<path class="st4" d="M65.9,99.2h-5.6c-0.7,0-1.2-0.5-1.2-1.2c0-0.7,0.5-1.2,1.2-1.2c0,0,0,0,0,0h5.6c0.7,0,1.2,0.5,1.2,1.2
		C67.1,98.6,66.6,99.2,65.9,99.2C65.9,99.2,65.9,99.2,65.9,99.2z"/>
	<path class="st6" d="M125.5,93.2h-21c-0.4,0-0.7-0.3-0.7-0.7s0.3-0.7,0.7-0.7l0,0h21c0.4,0,0.7,0.3,0.7,0.7S125.9,93.2,125.5,93.2z
		"/>
	<path class="st6" d="M118,95.8h-13.5c-0.4,0-0.7-0.3-0.7-0.7l0,0c0-0.4,0.3-0.7,0.7-0.7H118c0.4,0,0.7,0.3,0.7,0.7
		C118.7,95.5,118.4,95.8,118,95.8L118,95.8z"/>
	<path class="st6" d="M112.6,98.6h-8.1c-0.4,0-0.7-0.3-0.7-0.7c0-0.4,0.3-0.7,0.7-0.7l0,0h8.1c0.4,0,0.7,0.3,0.7,0.7l0,0
		C113.3,98.3,113,98.6,112.6,98.6z"/>
	<path class="st6" d="M117.1,98.6H115c-0.4,0-0.7-0.3-0.7-0.7c0-0.4,0.3-0.7,0.7-0.7l0,0h2.1c0.4,0,0.7,0.3,0.7,0.7l0,0
		C117.8,98.3,117.5,98.6,117.1,98.6z"/>
	<path class="st6" d="M123,98.6h-2.9c-0.4,0-0.7-0.3-0.7-0.7c0-0.4,0.3-0.7,0.7-0.7h2.9c0.4,0,0.7,0.3,0.7,0.7l0,0
		C123.7,98.3,123.4,98.6,123,98.6z"/>
	<path class="st6" d="M125.5,81.3h-21c-0.4,0-0.7-0.3-0.7-0.7s0.3-0.7,0.7-0.7l0,0h21c0.4,0,0.7,0.3,0.7,0.7S125.9,81.3,125.5,81.3z
		"/>
	<path class="st6" d="M118,83.9h-13.5c-0.4,0-0.7-0.3-0.7-0.7s0.3-0.7,0.7-0.7l0,0H118c0.4,0,0.7,0.3,0.7,0.7S118.4,83.9,118,83.9z"
		/>
	<path class="st6" d="M112.6,86.8h-8.1c-0.4,0-0.7-0.3-0.7-0.7s0.3-0.7,0.7-0.7l0,0h8.1c0.4,0,0.7,0.3,0.7,0.7S113,86.8,112.6,86.8z
		"/>
	<path class="st6" d="M117.1,86.8H115c-0.4,0-0.7-0.3-0.7-0.7s0.3-0.7,0.7-0.7l0,0h2.1c0.4,0,0.7,0.3,0.7,0.7S117.5,86.8,117.1,86.8
		L117.1,86.8z"/>
	<path class="st6" d="M123,86.8h-2.9c-0.4,0-0.7-0.3-0.7-0.7s0.3-0.7,0.7-0.7l0,0h2.9c0.4,0,0.7,0.3,0.7,0.7S123.4,86.8,123,86.8z"
		/>
	<path class="st6" d="M125.5,57.6h-21c-0.4,0-0.7-0.3-0.7-0.7s0.3-0.7,0.7-0.7l0,0h21c0.4,0,0.7,0.3,0.7,0.7S125.9,57.6,125.5,57.6z
		"/>
	<path class="st6" d="M118,60.2h-13.5c-0.4,0-0.7-0.3-0.7-0.7s0.3-0.7,0.7-0.7l0,0H118c0.4,0,0.7,0.3,0.7,0.7S118.4,60.2,118,60.2z"
		/>
	<path class="st6" d="M112.6,63h-8.1c-0.4,0-0.7-0.3-0.7-0.7c0-0.4,0.3-0.7,0.7-0.7l0,0h8.1c0.4,0,0.7,0.3,0.7,0.7l0,0
		C113.3,62.7,113,63,112.6,63z"/>
	<path class="st6" d="M117.1,63H115c-0.4,0-0.7-0.3-0.7-0.7c0-0.4,0.3-0.7,0.7-0.7l0,0h2.1c0.4,0,0.7,0.3,0.7,0.7l0,0
		C117.8,62.7,117.5,63,117.1,63z"/>
	<path class="st6" d="M123,63h-2.9c-0.4,0-0.7-0.3-0.7-0.7c0-0.4,0.3-0.7,0.7-0.7h2.9c0.4,0,0.7,0.3,0.7,0.7l0,0
		C123.7,62.7,123.4,63,123,63z"/>
	<path class="st6" d="M125.5,69.4h-21c-0.4,0-0.7-0.3-0.7-0.7c0-0.4,0.3-0.7,0.7-0.7l0,0h21c0.4,0,0.7,0.3,0.7,0.7
		C126.2,69.1,125.9,69.4,125.5,69.4z"/>
	<path class="st6" d="M118,72.1h-13.5c-0.4,0-0.7-0.3-0.7-0.7c0-0.4,0.3-0.7,0.7-0.7l0,0H118c0.4,0,0.7,0.3,0.7,0.7l0,0
		C118.7,71.8,118.4,72.1,118,72.1z"/>
	<path class="st6" d="M112.6,74.9h-8.1c-0.4,0-0.7-0.3-0.7-0.7s0.3-0.7,0.7-0.7l0,0h8.1c0.4,0,0.7,0.3,0.7,0.7S113,74.9,112.6,74.9z
		"/>
	<path class="st6" d="M117.1,74.9H115c-0.4,0-0.7-0.3-0.7-0.7s0.3-0.7,0.7-0.7l0,0h2.1c0.4,0,0.7,0.3,0.7,0.7S117.5,74.9,117.1,74.9
		L117.1,74.9z"/>
	<path class="st6" d="M123,74.9h-2.9c-0.4,0-0.7-0.3-0.7-0.7s0.3-0.7,0.7-0.7l0,0h2.9c0.4,0,0.7,0.3,0.7,0.7S123.4,74.9,123,74.9z"
		/>
	<path class="st6" d="M125.5,45.7h-21c-0.4,0-0.6-0.3-0.6-0.7c0-0.4,0.3-0.6,0.6-0.6h21c0.4,0,0.7,0.3,0.7,0.6
		C126.2,45.4,125.9,45.7,125.5,45.7C125.5,45.7,125.5,45.7,125.5,45.7z"/>
	<path class="st6" d="M118,48.4h-13.5c-0.4,0-0.6-0.3-0.6-0.7c0-0.4,0.3-0.6,0.6-0.6H118c0.4,0,0.7,0.3,0.7,0.6
		C118.7,48.1,118.4,48.4,118,48.4C118,48.4,118,48.4,118,48.4z"/>
	<path class="st6" d="M112.6,51.2h-8.1c-0.4,0-0.6-0.3-0.6-0.7c0-0.4,0.3-0.6,0.6-0.6h8.1c0.4,0,0.6,0.3,0.6,0.7
		C113.3,50.9,113,51.2,112.6,51.2z"/>
	<path class="st6" d="M117.1,51.2H115c-0.4,0-0.7-0.3-0.7-0.6c0-0.4,0.3-0.7,0.6-0.7c0,0,0,0,0,0h2.1c0.4,0,0.6,0.3,0.6,0.7
		C117.8,50.9,117.5,51.2,117.1,51.2L117.1,51.2z"/>
	<path class="st6" d="M123,51.2h-2.9c-0.4,0-0.7-0.3-0.7-0.6c0-0.4,0.3-0.7,0.6-0.7c0,0,0,0,0,0h2.9c0.4,0,0.6,0.3,0.6,0.7
		C123.6,50.9,123.4,51.2,123,51.2z"/>
	<circle class="st7" cx="23.8" cy="27.8" r="2"/>
	<circle class="st8" cx="30.1" cy="27.8" r="2"/>
	<circle class="st9" cx="36.5" cy="27.8" r="2"/>
	<path class="st10" d="M129.9,111.9H19.7c-3.4,0-6.2-2.8-6.2-6.2V27.4c0-3.4,2.8-6.2,6.2-6.2h110.1c3.4,0,6.2,2.8,6.2,6.2v78.2
		C136.1,109.1,133.3,111.9,129.9,111.9z M19.2,23.2c-2.1,0-3.9,1.7-3.9,3.9v79c0,2.1,1.7,3.9,3.9,3.9c0,0,0,0,0,0h111.2
		c2.1,0,3.9-1.7,3.9-3.9V27c0-2.1-1.7-3.9-3.9-3.9L19.2,23.2z"/>
	<path class="st11" d="M3.2,83.8h49.1c1.2,0,2.2,1,2.2,2.2v34.9c0,1.2-1,2.2-2.2,2.2H3.2c-1.2,0-2.2-1-2.2-2.2V86.1
		C0.9,84.8,1.9,83.8,3.2,83.8z"/>
	<path class="st10" d="M54.1,92.5H14.4c-0.5-0.1-0.9-0.5-0.8-1c0-0.4,0.4-0.8,0.8-0.8h39.7c0.5-0.1,0.9,0.3,1,0.8
		c0.1,0.5-0.3,0.9-0.8,1C54.2,92.5,54.2,92.5,54.1,92.5z"/>
	<circle class="st7" cx="5.2" cy="87.7" r="0.9"/>
	<circle class="st8" cx="8" cy="87.7" r="0.9"/>
	<circle class="st9" cx="10.8" cy="87.7" r="0.9"/>
	<path class="st10" d="M9,92.5H1.2c-0.5-0.1-0.9-0.5-0.8-1c0-0.4,0.4-0.8,0.8-0.8H9c0.5-0.1,0.9,0.3,1,0.8c0.1,0.5-0.3,0.9-0.8,1
		C9.1,92.5,9.1,92.5,9,92.5z"/>
	<path class="st10" d="M52.3,124.1H3.2c-1.7,0-3.2-1.4-3.2-3.2c0,0,0,0,0,0V86.1c0-1.7,1.4-3.1,3.2-3.1h49.1c1.7,0,3.1,1.4,3.2,3.2
		v34.8C55.4,122.7,54,124.1,52.3,124.1C52.3,124.1,52.3,124.1,52.3,124.1z M3.2,84.7c-0.7,0-1.3,0.6-1.3,1.3v34.9
		c0,0.7,0.6,1.3,1.3,1.3h49.1c0.7,0,1.3-0.6,1.3-1.3V86.1c0-0.7-0.6-1.3-1.3-1.3H3.2z"/>
	<circle class="st12" cx="136" cy="18.7" r="16.5"/>
	<path class="st10" d="M135.1,35.2c-9.2,0-16.6-7.4-16.6-16.6c0-9.2,7.4-16.6,16.6-16.6c9.2,0,16.6,7.4,16.6,16.6c0,0,0,0,0,0
		C151.7,27.8,144.2,35.2,135.1,35.2z M135.1,3.8c-8.2,0-14.8,6.6-14.8,14.8s6.6,14.8,14.8,14.8s14.8-6.6,14.8-14.8c0,0,0,0,0,0
		C149.9,10.4,143.3,3.8,135.1,3.8z"/>
	<text transform="matrix(1 0 0 1 127.1702 21.4998)" class="st13 st14">&lt;/&gt;</text>
</g>
</svg>
